<?xml version="1.0" standalone="no"?><!DOCTYPE svg PUBLIC "-//W3C//DTD SVG 1.1//EN" "http://www.w3.org/Graphics/SVG/1.1/DTD/svg11.dtd"><svg t="1520481748747" class="icon" style="" viewBox="0 0 1024 1024" version="1.1" xmlns="http://www.w3.org/2000/svg" p-id="1579" xmlns:xlink="http://www.w3.org/1999/xlink" width="200" height="200"><defs><style type="text/css"></style></defs><path d="M672 947.2c-32 0-57.6-12.8-76.8-32l-320-320c-19.2-19.2-32-51.2-32-83.2s12.8-57.6 32-83.2l320-320c19.2-19.2 51.2-32 76.8-32s57.6 12.8 76.8 32c44.8 44.8 44.8 115.2 0 160l-243.2 243.2 243.2 243.2c44.8 44.8 44.8 115.2 0 160-19.2 19.2-44.8 32-76.8 32z m0-819.2c-12.8 0-32 6.4-44.8 19.2l-313.6 320c-12.8 12.8-12.8 25.6-12.8 44.8 0 19.2 0 32 12.8 44.8l320 320c12.8 12.8 25.6 19.2 38.4 19.2 12.8 0 32-6.4 38.4-19.2 25.6-25.6 25.6-57.6 0-83.2l-262.4-262.4c-12.8-12.8-12.8-25.6 0-38.4l262.4-262.4c25.6-25.6 25.6-57.6 0-83.2-6.4-12.8-19.2-19.2-38.4-19.2z" fill="" p-id="1580"></path></svg>