<?xml version="1.0" standalone="no"?><!DOCTYPE svg PUBLIC "-//W3C//DTD SVG 1.1//EN" "http://www.w3.org/Graphics/SVG/1.1/DTD/svg11.dtd"><svg t="1520482090678" class="icon" style="" viewBox="0 0 1142 1024" version="1.1" xmlns="http://www.w3.org/2000/svg" p-id="6750" xmlns:xlink="http://www.w3.org/1999/xlink" width="223.046875" height="200"><defs><style type="text/css"></style></defs><path d="M60.6208 25.706496A30.72 30.72 0 0 0 1.51552 42.479616l211.603456 745.730048c13.500416 40.218624 54.833152 69.902336 95.752192 69.902336h650.067968c41.5744 0 82.08384-30.94528 93.003776-71.053312l86.499328-319.721472c18.90304-69.85728-27.119616-129.527808-99.479552-129.040384l-489.20576 3.293184a30.72 30.72 0 0 0 0.4096 61.44l489.209856-3.29728c31.739904-0.212992 48.04608 20.93056 39.759872 51.560448l-86.48704 319.668224c-3.62496 13.320192-19.84512 25.710592-33.71008 25.710592H308.871168c-14.348288 0-31.952896-12.505088-36.888576-26.087424L60.624896 25.706496zM323.584 1021.952c35.06176 0 63.488-28.42624 63.488-63.488 0-35.06176-28.42624-63.488-63.488-63.488-35.06176 0-63.488 28.42624-63.488 63.488 0 35.06176 28.42624 63.488 63.488 63.488z m0-61.44a2.048 2.048 0 1 1 0-4.096 2.048 2.048 0 0 1 0 4.096zM868.352 1021.952c35.06176 0 63.488-28.42624 63.488-63.488 0-35.06176-28.42624-63.488-63.488-63.488-35.06176 0-63.488 28.42624-63.488 63.488 0 35.06176 28.42624 63.488 63.488 63.488z m0-61.44a2.048 2.048 0 1 1 0-4.096 2.048 2.048 0 0 1 0 4.096z" p-id="6751"></path></svg>